<svg xmlns="http://www.w3.org/2000/svg" width="875" height="600"><rect width="875" height="600" x="0" y="0" fill="#ffffff" id="backgorund"/><g id="viz"><g transform="translate(0,0)"><g transform="translate(10,20)"><g><path fill="#d62728" d="M0,9.272727272727309C19.625,9.272727272727309,19.625,14.381818181818197,39.25,14.381818181818197C58.875,14.381818181818197,58.875,-1.3999999999999329,78.5,-1.3999999999999329C98.125,-1.3999999999999329,98.125,15.400000000000144,117.75,15.400000000000144C137.375,15.400000000000144,137.375,30.67272727272733,157,30.67272727272733C176.625,30.67272727272733,176.625,33.21818181818192,196.25,33.21818181818192C215.875,33.21818181818192,215.875,34.745454545454564,235.5,34.745454545454564C255.125,34.745454545454564,255.125,34.23636363636375,274.75,34.23636363636375C294.375,34.23636363636375,294.375,35.763636363636394,314,35.763636363636394C333.625,35.763636363636394,333.625,39.836363636363686,353.25,39.836363636363686C372.875,39.836363636363686,372.875,40.854545454545516,392.5,40.854545454545516C412.125,40.854545454545516,412.125,40.34545454545463,431.75000000000006,40.34545454545463C451.375,40.34545454545463,451.375,41.36363636363646,471,41.36363636363646C490.625,41.36363636363646,490.625,41.87272727272734,510.25,41.87272727272734C529.875,41.87272727272734,529.875,40.85454545454557,549.5,40.85454545454557C569.125,40.85454545454557,569.125,41.36363636363646,588.75,41.36363636363646C608.375,41.36363636363646,608.375,41.36363636363646,628,41.36363636363646C647.625,41.36363636363646,647.625,43.890909090909226,667.25,43.890909090909226C686.875,43.890909090909226,686.875,43.38181818181828,706.5,43.38181818181828C726.125,43.38181818181828,726.125,42.87272727272734,745.75,42.87272727272734C765.375,42.87272727272734,765.375,43.38181818181828,785,43.38181818181828L785,293.34545454545463C765.375,293.34545454545463,765.375,303.01818181818186,745.75,303.01818181818186C726.125,303.01818181818186,726.125,300.4727272727273,706.5,300.4727272727273C686.875,300.4727272727273,686.875,311.1636363636365,667.25,311.1636363636365C647.625,311.1636363636365,647.625,320.8545454545456,628,320.8545454545456C608.375,320.8545454545456,608.375,324.41818181818195,588.75,324.41818181818195C569.125,324.41818181818195,569.125,329.509090909091,549.5,329.509090909091C529.875,329.509090909091,529.875,335.6181818181818,510.25,335.6181818181818C490.625,335.6181818181818,490.625,335.109090909091,471,335.109090909091C451.375,335.109090909091,451.375,334.6000000000001,431.75000000000006,334.6000000000001C412.125,334.6000000000001,412.125,334.0909090909091,392.5,334.0909090909091C372.875,334.0909090909091,372.875,334.0909090909091,353.25,334.0909090909091C333.625,334.0909090909091,333.625,334.59999999999997,314,334.59999999999997C294.375,334.59999999999997,294.375,338.1636363636364,274.75,338.1636363636364C255.125,338.1636363636364,255.125,343.76363636363635,235.5,343.76363636363635C215.875,343.76363636363635,215.875,341.72727272727275,196.25,341.72727272727275C176.625,341.72727272727275,176.625,341.72727272727275,157,341.72727272727275C137.375,341.72727272727275,137.375,330.5272727272728,117.75,330.5272727272728C98.125,330.5272727272728,98.125,317.2909090909091,78.5,317.2909090909091C58.875,317.2909090909091,58.875,339.1818181818182,39.25,339.1818181818182C19.625,339.1818181818182,19.625,337.1272727272728,0,337.1272727272728Z"><title>fb</title></path><path fill="#e377c2" d="M0,338.1272727272728C19.625,338.1272727272728,19.625,402.2727272727273,39.25,402.2727272727273C58.875,402.2727272727273,58.875,318.2909090909091,78.5,318.2909090909091C98.125,318.2909090909091,98.125,331.5272727272728,117.75,331.5272727272728C137.375,331.5272727272728,137.375,342.72727272727275,157,342.72727272727275C176.625,342.72727272727275,176.625,342.72727272727275,196.25,342.72727272727275C215.875,342.72727272727275,215.875,344.76363636363635,235.5,344.76363636363635C255.125,344.76363636363635,255.125,339.1636363636364,274.75,339.1636363636364C294.375,339.1636363636364,294.375,335.59999999999997,314,335.59999999999997C333.625,335.59999999999997,333.625,335.0909090909091,353.25,335.0909090909091C372.875,335.0909090909091,372.875,335.0909090909091,392.5,335.0909090909091C412.125,335.0909090909091,412.125,335.6000000000001,431.75000000000006,335.6000000000001C451.375,335.6000000000001,451.375,336.109090909091,471,336.109090909091C490.625,336.109090909091,490.625,336.6181818181818,510.25,336.6181818181818C529.875,336.6181818181818,529.875,330.509090909091,549.5,330.509090909091C569.125,330.509090909091,569.125,325.41818181818195,588.75,325.41818181818195C608.375,325.41818181818195,608.375,321.8545454545456,628,321.8545454545456C647.625,321.8545454545456,647.625,312.1636363636365,667.25,312.1636363636365C686.875,312.1636363636365,686.875,301.4727272727273,706.5,301.4727272727273C726.125,301.4727272727273,726.125,304.01818181818186,745.75,304.01818181818186C765.375,304.01818181818186,765.375,294.34545454545463,785,294.34545454545463L785,405.3272727272728C765.375,405.3272727272728,765.375,406.3454545454546,745.75,406.3454545454546C726.125,406.3454545454546,726.125,397.1818181818183,706.5,397.1818181818183C686.875,397.1818181818183,686.875,405.3272727272728,667.25,405.3272727272728C647.625,405.3272727272728,647.625,407.8909090909092,628,407.8909090909092C608.375,407.8909090909092,608.375,408.4000000000001,588.75,408.4000000000001C569.125,408.4000000000001,569.125,407.8909090909092,549.5,407.8909090909092C529.875,407.8909090909092,529.875,411.4545454545454,510.25,411.4545454545454C490.625,411.4545454545454,490.625,405.85454545454553,471,405.85454545454553C451.375,405.85454545454553,451.375,409.4181818181819,431.75000000000006,409.4181818181819C412.125,409.4181818181819,412.125,408.4,392.5,408.4C372.875,408.4,372.875,409.41818181818184,353.25,409.41818181818184C333.625,409.41818181818184,333.625,410.9454545454546,314,410.9454545454546C294.375,410.9454545454546,294.375,415.0181818181819,274.75,415.0181818181819C255.125,415.0181818181819,255.125,422.6545454545455,235.5,422.6545454545455C215.875,422.6545454545455,215.875,418.5818181818182,196.25,418.5818181818182C176.625,418.5818181818182,176.625,419.6,157,419.6C137.375,419.6,137.375,406.8727272727274,117.75,406.8727272727274C98.125,406.8727272727274,98.125,387.5272727272728,78.5,387.5272727272728C58.875,387.5272727272728,58.875,462.3454545454545,39.25,462.3454545454545C19.625,462.3454545454545,19.625,399.7272727272727,0,399.7272727272727Z"><title>sl</title></path><path fill="#2ca02c" d="M0,560C19.625,560,19.625,560,39.25,560C58.875,560,58.875,550.8545454545455,78.5,550.8545454545455C98.125,550.8545454545455,98.125,537.1272727272727,117.75,537.1272727272727C137.375,537.1272727272727,137.375,521.3636363636364,157,521.3636363636364C176.625,521.3636363636364,176.625,522.8909090909092,196.25,522.8909090909092C215.875,522.8909090909092,215.875,520.3454545454545,235.5,520.3454545454545C255.125,520.3454545454545,255.125,515.2545454545455,274.75,515.2545454545455C294.375,515.2545454545455,294.375,514.2363636363636,314,514.2363636363636C333.625,514.2363636363636,333.625,513.2181818181817,353.25,513.2181818181817C372.875,513.2181818181817,372.875,514.2363636363636,392.5,514.2363636363636C412.125,514.2363636363636,412.125,513.7272727272727,431.75000000000006,513.7272727272727C451.375,513.7272727272727,451.375,512.2,471,512.2C490.625,512.2,490.625,515.7636363636364,510.25,515.7636363636364C529.875,515.7636363636364,529.875,515.2545454545456,549.5,515.2545454545456C569.125,515.2545454545456,569.125,517.8000000000001,588.75,517.8000000000001C608.375,517.8000000000001,608.375,518.8181818181819,628,518.8181818181819C647.625,518.8181818181819,647.625,518.8000000000001,667.25,518.8000000000001C686.875,518.8000000000001,686.875,514.7272727272727,706.5,514.7272727272727C726.125,514.7272727272727,726.125,516.7636363636364,745.75,516.7636363636364C765.375,516.7636363636364,765.375,515.2363636363636,785,515.2363636363636L785,548.8363636363637C765.375,548.8363636363637,765.375,548.3272727272727,745.75,548.3272727272727C726.125,548.3272727272727,726.125,548.3272727272728,706.5,548.3272727272728C686.875,548.3272727272728,686.875,548.8363636363637,667.25,548.8363636363637C647.625,548.8363636363637,647.625,547.3272727272728,628,547.3272727272728C608.375,547.3272727272728,608.375,545.8000000000001,588.75,545.8000000000001C569.125,545.8000000000001,569.125,544.2727272727274,549.5,544.2727272727274C529.875,544.2727272727274,529.875,544.2727272727273,510.25,544.2727272727273C490.625,544.2727272727273,490.625,543.7636363636364,471,543.7636363636364C451.375,543.7636363636364,451.375,542.7454545454545,431.75000000000006,542.7454545454545C412.125,542.7454545454545,412.125,543.7636363636364,392.5,543.7636363636364C372.875,543.7636363636364,372.875,542.2363636363636,353.25,542.2363636363636C333.625,542.2363636363636,333.625,538.1636363636363,314,538.1636363636363C294.375,538.1636363636363,294.375,538.6727272727273,274.75,538.6727272727273C255.125,538.6727272727273,255.125,538.6727272727272,235.5,538.6727272727272C215.875,538.6727272727272,215.875,537.6545454545455,196.25,537.6545454545455C176.625,537.6545454545455,176.625,535.1090909090909,157,535.1090909090909C137.375,535.1090909090909,137.375,548.3272727272728,117.75,548.3272727272728C98.125,548.3272727272728,98.125,555.9454545454545,78.5,555.9454545454545C58.875,555.9454545454545,58.875,560,39.25,560C19.625,560,19.625,560,0,560Z"><title>ct</title></path><path fill="#1f77b4" d="M0,400.7272727272727C19.625,400.7272727272727,19.625,463.3454545454545,39.25,463.3454545454545C58.875,463.3454545454545,58.875,447.56363636363636,78.5,447.56363636363636C98.125,447.56363636363636,98.125,464.36363636363643,117.75,464.36363636363643C137.375,464.36363636363643,137.375,475.56363636363636,157,475.56363636363636C176.625,475.56363636363636,176.625,478.1090909090909,196.25,478.1090909090909C215.875,478.1090909090909,215.875,475.05454545454546,235.5,475.05454545454546C255.125,475.05454545454546,255.125,467.92727272727274,274.75,467.92727272727274C294.375,467.92727272727274,294.375,467.4181818181818,314,467.4181818181818C333.625,467.4181818181818,333.625,464.3636363636363,353.25,464.3636363636363C372.875,464.3636363636363,372.875,409.4,392.5,409.4C412.125,409.4,412.125,463.3454545454546,431.75000000000006,463.3454545454546C451.375,463.3454545454546,451.375,460.80000000000007,471,460.80000000000007C490.625,460.80000000000007,490.625,468.43636363636364,510.25,468.43636363636364C529.875,468.43636363636364,529.875,462.3272727272728,549.5,462.3272727272728C569.125,462.3272727272728,569.125,409.4000000000001,588.75,409.4000000000001C608.375,409.4000000000001,608.375,464.36363636363643,628,464.36363636363643C647.625,464.36363636363643,647.625,463.8363636363637,667.25,463.8363636363637C686.875,463.8363636363637,686.875,459.76363636363646,706.5,459.76363636363646C726.125,459.76363636363646,726.125,466.3818181818182,745.75,466.3818181818182C765.375,466.3818181818182,765.375,464.85454545454553,785,464.85454545454553L785,514.2363636363636C765.375,514.2363636363636,765.375,515.7636363636364,745.75,515.7636363636364C726.125,515.7636363636364,726.125,513.7272727272727,706.5,513.7272727272727C686.875,513.7272727272727,686.875,517.8000000000001,667.25,517.8000000000001C647.625,517.8000000000001,647.625,517.8181818181819,628,517.8181818181819C608.375,517.8181818181819,608.375,463.36363636363643,588.75,463.36363636363643C569.125,463.36363636363643,569.125,514.2545454545456,549.5,514.2545454545456C529.875,514.2545454545456,529.875,514.7636363636364,510.25,514.7636363636364C490.625,514.7636363636364,490.625,511.20000000000005,471,511.20000000000005C451.375,511.20000000000005,451.375,512.7272727272727,431.75000000000006,512.7272727272727C412.125,512.7272727272727,412.125,462.3454545454545,392.5,462.3454545454545C372.875,462.3454545454545,372.875,512.2181818181817,353.25,512.2181818181817C333.625,512.2181818181817,333.625,513.2363636363636,314,513.2363636363636C294.375,513.2363636363636,294.375,514.2545454545455,274.75,514.2545454545455C255.125,514.2545454545455,255.125,519.3454545454545,235.5,519.3454545454545C215.875,519.3454545454545,215.875,521.8909090909092,196.25,521.8909090909092C176.625,521.8909090909092,176.625,520.3636363636364,157,520.3636363636364C137.375,520.3636363636364,137.375,507.1272727272728,117.75,507.1272727272728C98.125,507.1272727272728,98.125,493.89090909090913,78.5,493.89090909090913C58.875,493.89090909090913,58.875,514.2545454545455,39.25,514.2545454545455C19.625,514.2545454545455,19.625,457.7454545454545,0,457.7454545454545Z"><title>cb</title></path><path fill="#ff7f0e" d="M0,458.7454545454545C19.625,458.7454545454545,19.625,340.1818181818182,39.25,340.1818181818182C58.875,340.1818181818182,58.875,388.5272727272728,78.5,388.5272727272728C98.125,388.5272727272728,98.125,407.8727272727274,117.75,407.8727272727274C137.375,407.8727272727274,137.375,420.6,157,420.6C176.625,420.6,176.625,419.5818181818182,196.25,419.5818181818182C215.875,419.5818181818182,215.875,423.6545454545455,235.5,423.6545454545455C255.125,423.6545454545455,255.125,416.0181818181819,274.75,416.0181818181819C294.375,416.0181818181819,294.375,411.9454545454546,314,411.9454545454546C333.625,411.9454545454546,333.625,410.41818181818184,353.25,410.41818181818184C372.875,410.41818181818184,372.875,463.3454545454545,392.5,463.3454545454545C412.125,463.3454545454545,412.125,410.4181818181819,431.75000000000006,410.4181818181819C451.375,410.4181818181819,451.375,406.85454545454553,471,406.85454545454553C490.625,406.85454545454553,490.625,412.4545454545454,510.25,412.4545454545454C529.875,412.4545454545454,529.875,408.8909090909092,549.5,408.8909090909092C569.125,408.8909090909092,569.125,464.36363636363643,588.75,464.36363636363643C608.375,464.36363636363643,608.375,408.8909090909092,628,408.8909090909092C647.625,408.8909090909092,647.625,406.3272727272728,667.25,406.3272727272728C686.875,406.3272727272728,686.875,398.1818181818183,706.5,398.1818181818183C726.125,398.1818181818183,726.125,407.3454545454546,745.75,407.3454545454546C765.375,407.3454545454546,765.375,406.3272727272728,785,406.3272727272728L785,463.85454545454553C765.375,463.85454545454553,765.375,465.3818181818182,745.75,465.3818181818182C726.125,465.3818181818182,726.125,458.76363636363646,706.5,458.76363636363646C686.875,458.76363636363646,686.875,462.8363636363637,667.25,462.8363636363637C647.625,462.8363636363637,647.625,463.36363636363643,628,463.36363636363643C608.375,463.36363636363643,608.375,516.8000000000001,588.75,516.8000000000001C569.125,516.8000000000001,569.125,461.3272727272728,549.5,461.3272727272728C529.875,461.3272727272728,529.875,467.43636363636364,510.25,467.43636363636364C490.625,467.43636363636364,490.625,459.80000000000007,471,459.80000000000007C451.375,459.80000000000007,451.375,462.3454545454546,431.75000000000006,462.3454545454546C412.125,462.3454545454546,412.125,513.2363636363636,392.5,513.2363636363636C372.875,513.2363636363636,372.875,463.3636363636363,353.25,463.3636363636363C333.625,463.3636363636363,333.625,466.4181818181818,314,466.4181818181818C294.375,466.4181818181818,294.375,466.92727272727274,274.75,466.92727272727274C255.125,466.92727272727274,255.125,474.05454545454546,235.5,474.05454545454546C215.875,474.05454545454546,215.875,477.1090909090909,196.25,477.1090909090909C176.625,477.1090909090909,176.625,474.56363636363636,157,474.56363636363636C137.375,474.56363636363636,137.375,463.36363636363643,117.75,463.36363636363643C98.125,463.36363636363643,98.125,446.56363636363636,78.5,446.56363636363636C58.875,446.56363636363636,58.875,401.2727272727273,39.25,401.2727272727273C19.625,401.2727272727273,19.625,508.6363636363636,0,508.6363636363636Z"><title>ch</title></path><path fill="#8c564b" d="M0,546.2727272727273C19.625,546.2727272727273,19.625,546.290909090909,39.25,546.290909090909C58.875,546.290909090909,58.875,541.1999999999999,78.5,541.1999999999999C98.125,541.1999999999999,98.125,549.3272727272728,117.75,549.3272727272728C137.375,549.3272727272728,137.375,550.3454545454546,157,550.3454545454546C176.625,550.3454545454546,176.625,549.8363636363637,196.25,549.8363636363637C215.875,549.8363636363637,215.875,549.8363636363637,235.5,549.8363636363637C255.125,549.8363636363637,255.125,550.3454545454546,274.75,550.3454545454546C294.375,550.3454545454546,294.375,548.3090909090909,314,548.3090909090909C333.625,548.3090909090909,333.625,543.2363636363636,353.25,543.2363636363636C372.875,543.2363636363636,372.875,544.7636363636364,392.5,544.7636363636364C412.125,544.7636363636364,412.125,543.7454545454545,431.75000000000006,543.7454545454545C451.375,543.7454545454545,451.375,544.7636363636364,471,544.7636363636364C490.625,544.7636363636364,490.625,545.2727272727273,510.25,545.2727272727273C529.875,545.2727272727273,529.875,545.2727272727274,549.5,545.2727272727274C569.125,545.2727272727274,569.125,546.8000000000001,588.75,546.8000000000001C608.375,546.8000000000001,608.375,548.3272727272728,628,548.3272727272728C647.625,548.3272727272728,647.625,549.8363636363637,667.25,549.8363636363637C686.875,549.8363636363637,686.875,549.3272727272728,706.5,549.3272727272728C726.125,549.3272727272728,726.125,549.3272727272727,745.75,549.3272727272727C765.375,549.3272727272727,765.375,549.8363636363637,785,549.8363636363637L785,557.4727272727273C765.375,557.4727272727273,765.375,556.9636363636364,745.75,556.9636363636364C726.125,556.9636363636364,726.125,557.4727272727274,706.5,557.4727272727274C686.875,557.4727272727274,686.875,556.9636363636364,667.25,556.9636363636364C647.625,556.9636363636364,647.625,554.9454545454546,628,554.9454545454546C608.375,554.9454545454546,608.375,553.4181818181819,588.75,553.4181818181819C569.125,553.4181818181819,569.125,552.4000000000001,549.5,552.4000000000001C529.875,552.4000000000001,529.875,552.4,510.25,552.4C490.625,552.4,490.625,552.909090909091,471,552.909090909091C451.375,552.909090909091,451.375,552.4000000000001,431.75000000000006,552.4000000000001C412.125,552.4000000000001,412.125,552.9090909090909,392.5,552.9090909090909C372.875,552.9090909090909,372.875,550.8727272727273,353.25,550.8727272727273C333.625,550.8727272727273,333.625,555.4363636363637,314,555.4363636363637C294.375,555.4363636363637,294.375,556.9636363636364,274.75,556.9636363636364C255.125,556.9636363636364,255.125,556.4545454545455,235.5,556.4545454545455C215.875,556.4545454545455,215.875,556.9636363636364,196.25,556.9636363636364C176.625,556.9636363636364,176.625,557.4727272727273,157,557.4727272727273C137.375,557.4727272727273,137.375,556.4545454545455,117.75,556.4545454545455C98.125,556.4545454545455,98.125,549.8545454545455,78.5,549.8545454545455C58.875,549.8545454545455,58.875,554.9454545454545,39.25,554.9454545454545C19.625,554.9454545454545,19.625,554.9272727272727,0,554.9272727272727Z"><title>sf</title></path><path fill="#9467bd" d="M0,555.9272727272727C19.625,555.9272727272727,19.625,555.9454545454545,39.25,555.9454545454545C58.875,555.9454545454545,58.875,556.9454545454545,78.5,556.9454545454545C98.125,556.9454545454545,98.125,557.4545454545455,117.75,557.4545454545455C137.375,557.4545454545455,137.375,558.4727272727273,157,558.4727272727273C176.625,558.4727272727273,176.625,557.9636363636364,196.25,557.9636363636364C215.875,557.9636363636364,215.875,557.4545454545455,235.5,557.4545454545455C255.125,557.4545454545455,255.125,557.9636363636364,274.75,557.9636363636364C294.375,557.9636363636364,294.375,556.4363636363637,314,556.4363636363637C333.625,556.4363636363637,333.625,556.9454545454545,353.25,556.9454545454545C372.875,556.9454545454545,372.875,557.9636363636364,392.5,557.9636363636364C412.125,557.9636363636364,412.125,557.4545454545455,431.75000000000006,557.4545454545455C451.375,557.4545454545455,451.375,553.909090909091,471,553.909090909091C490.625,553.909090909091,490.625,553.4,510.25,553.4C529.875,553.4,529.875,553.4000000000001,549.5,553.4000000000001C569.125,553.4000000000001,569.125,557.9636363636364,588.75,557.9636363636364C608.375,557.9636363636364,608.375,559.4909090909091,628,559.4909090909091C647.625,559.4909090909091,647.625,560,667.25,560C686.875,560,686.875,560,706.5,560C726.125,560,726.125,560,745.75,560C765.375,560,765.375,560,785,560L785,560C765.375,560,765.375,560,745.75,560C726.125,560,726.125,560,706.5,560C686.875,560,686.875,560,667.25,560C647.625,560,647.625,560,628,560C608.375,560,608.375,560,588.75,560C569.125,560,569.125,556.4545454545455,549.5,556.4545454545455C529.875,556.4545454545455,529.875,556.4545454545455,510.25,556.4545454545455C490.625,556.4545454545455,490.625,556.4545454545455,471,556.4545454545455C451.375,556.4545454545455,451.375,560,431.75000000000006,560C412.125,560,412.125,560,392.5,560C372.875,560,372.875,560,353.25,560C333.625,560,333.625,560,314,560C294.375,560,294.375,560,274.75,560C255.125,560,255.125,560,235.5,560C215.875,560,215.875,560,196.25,560C176.625,560,176.625,560,157,560C137.375,560,137.375,560,117.75,560C98.125,560,98.125,560,78.5,560C58.875,560,58.875,559,39.25,559C19.625,559,19.625,560,0,560Z"><title>kn</title></path><path fill="#7f7f7f" d="M0,509.6363636363636C19.625,509.6363636363636,19.625,515.2545454545455,39.25,515.2545454545455C58.875,515.2545454545455,58.875,494.89090909090913,78.5,494.89090909090913C98.125,494.89090909090913,98.125,508.1272727272728,117.75,508.1272727272728C137.375,508.1272727272728,137.375,536.1090909090909,157,536.1090909090909C176.625,536.1090909090909,176.625,538.6545454545455,196.25,538.6545454545455C215.875,538.6545454545455,215.875,539.6727272727272,235.5,539.6727272727272C255.125,539.6727272727272,255.125,539.6727272727273,274.75,539.6727272727273C294.375,539.6727272727273,294.375,539.1636363636363,314,539.1636363636363C333.625,539.1636363636363,333.625,551.8727272727273,353.25,551.8727272727273C372.875,551.8727272727273,372.875,553.9090909090909,392.5,553.9090909090909C412.125,553.9090909090909,412.125,553.4000000000001,431.75000000000006,553.4000000000001C451.375,553.4000000000001,451.375,557.4545454545455,471,557.4545454545455C490.625,557.4545454545455,490.625,557.4545454545455,510.25,557.4545454545455C529.875,557.4545454545455,529.875,557.4545454545455,549.5,557.4545454545455C569.125,557.4545454545455,569.125,554.4181818181819,588.75,554.4181818181819C608.375,554.4181818181819,608.375,555.9454545454546,628,555.9454545454546C647.625,555.9454545454546,647.625,557.9636363636364,667.25,557.9636363636364C686.875,557.9636363636364,686.875,558.4727272727274,706.5,558.4727272727274C726.125,558.4727272727274,726.125,557.9636363636364,745.75,557.9636363636364C765.375,557.9636363636364,765.375,558.4727272727273,785,558.4727272727273L785,560C765.375,560,765.375,560,745.75,560C726.125,560,726.125,560,706.5,560C686.875,560,686.875,560,667.25,560C647.625,560,647.625,558.4909090909091,628,558.4909090909091C608.375,558.4909090909091,608.375,556.9636363636364,588.75,556.9636363636364C569.125,556.9636363636364,569.125,560,549.5,560C529.875,560,529.875,560,510.25,560C490.625,560,490.625,560,471,560C451.375,560,451.375,556.4545454545455,431.75000000000006,556.4545454545455C412.125,556.4545454545455,412.125,556.9636363636364,392.5,556.9636363636364C372.875,556.9636363636364,372.875,555.9454545454545,353.25,555.9454545454545C333.625,555.9454545454545,333.625,547.3090909090909,314,547.3090909090909C294.375,547.3090909090909,294.375,549.3454545454546,274.75,549.3454545454546C255.125,549.3454545454546,255.125,548.8363636363637,235.5,548.8363636363637C215.875,548.8363636363637,215.875,548.8363636363637,196.25,548.8363636363637C176.625,548.8363636363637,176.625,549.3454545454546,157,549.3454545454546C137.375,549.3454545454546,137.375,536.1272727272727,117.75,536.1272727272727C98.125,536.1272727272727,98.125,540.1999999999999,78.5,540.1999999999999C58.875,540.1999999999999,58.875,545.290909090909,39.25,545.290909090909C19.625,545.290909090909,19.625,545.2727272727273,0,545.2727272727273Z"><title>xx</title></path></g><g id="xAxis" transform="translate(0,560)" fill="none" font-size="10" font-family="sans-serif" text-anchor="middle"><path class="domain" stroke="currentColor" d="M0,0H785"/><g class="tick" opacity="1" transform="translate(0,0)"><line stroke="currentColor" y2="6"/><text fill="currentColor" y="9" dy="0.71em">2,002</text></g><g class="tick" opacity="1" transform="translate(78.5,0)"><line stroke="currentColor" y2="6"/><text fill="currentColor" y="9" dy="0.71em">2,004</text></g><g class="tick" opacity="1" transform="translate(157,0)"><line stroke="currentColor" y2="6"/><text fill="currentColor" y="9" dy="0.71em">2,006</text></g><g class="tick" opacity="1" transform="translate(235.5,0)"><line stroke="currentColor" y2="6"/><text fill="currentColor" y="9" dy="0.71em">2,008</text></g><g class="tick" opacity="1" transform="translate(314,0)"><line stroke="currentColor" y2="6"/><text fill="currentColor" y="9" dy="0.71em">2,010</text></g><g class="tick" opacity="1" transform="translate(392.5,0)"><line stroke="currentColor" y2="6"/><text fill="currentColor" y="9" dy="0.71em">2,012</text></g><g class="tick" opacity="1" transform="translate(471,0)"><line stroke="currentColor" y2="6"/><text fill="currentColor" y="9" dy="0.71em">2,014</text></g><g class="tick" opacity="1" transform="translate(549.5,0)"><line stroke="currentColor" y2="6"/><text fill="currentColor" y="9" dy="0.71em">2,016</text></g><g class="tick" opacity="1" transform="translate(628,0)"><line stroke="currentColor" y2="6"/><text fill="currentColor" y="9" dy="0.71em">2,018</text></g><g class="tick" opacity="1" transform="translate(706.5,0)"><line stroke="currentColor" y2="6"/><text fill="currentColor" y="9" dy="0.71em">2,020</text></g><g class="tick" opacity="1" transform="translate(785,0)"><line stroke="currentColor" y2="6"/><text fill="currentColor" y="9" dy="0.71em">2,022</text></g></g><text style="font-family: Arial, sans-serif; font-size: 12px; fill: rgb(123, 123, 123); font-weight: bold;" y="556" x="785" text-anchor="end">season</text><text style="font-family: Arial, sans-serif; font-size: 12px; fill: rgb(123, 123, 123); font-weight: bold;" x="4" text-anchor="start" dominant-baseline="hanging">value</text><g id="labels"><text x="0" y="179.20000000000005" text-anchor="start" alignment-baseline="middle" style="font-family: Arial, sans-serif; font-size: 10px; fill: black; font-weight: bold;">fb</text><text x="785" y="354.8363636363637" text-anchor="end" alignment-baseline="middle" style="font-family: Arial, sans-serif; font-size: 10px; fill: black; font-weight: bold;">sl</text><text x="706.5" y="533.5272727272728" text-anchor="middle" alignment-baseline="middle" style="font-family: Arial, sans-serif; font-size: 10px; fill: black; font-weight: bold;">ct</text><text x="0" y="433.2363636363636" text-anchor="start" alignment-baseline="middle" style="font-family: Arial, sans-serif; font-size: 10px; fill: black; font-weight: bold;">cb</text><text x="39.25" y="376.72727272727275" text-anchor="middle" alignment-baseline="middle" style="font-family: Arial, sans-serif; font-size: 10px; fill: black; font-weight: bold;">ch</text><text x="0" y="551.6" text-anchor="start" alignment-baseline="middle" style="font-family: Arial, sans-serif; font-size: 10px; fill: black; font-weight: bold;">sf</text><text x="0" y="557.9636363636364" text-anchor="start" alignment-baseline="middle" style="font-family: Arial, sans-serif; font-size: 10px; fill: black; font-weight: bold;">kn</text><text x="78.5" y="520.5454545454545" text-anchor="middle" alignment-baseline="middle" style="font-family: Arial, sans-serif; font-size: 10px; fill: black; font-weight: bold;">xx</text></g></g><text x="4" y="4" style="font-family: Arial, sans-serif; font-size: 12px; fill: black; font-weight: bold; dominant-baseline: hanging;"/></g></g><g id="legend" transform="translate(805,20)"><g transform="translate(5,0)"><g class="legendColor" transform="translate(0,0)"><g class="legendCells" transform="translate(0,16)"><g class="cell" transform="translate(0, 0)"><rect class="swatch" height="15" width="15" style="fill: rgb(31, 119, 180);"/><text class="label" transform="translate( 20, 12.5)" font-family="&quot;Arial&quot;, sans-serif" font-size="10px"><tspan x="0" dy="0em">cb</tspan></text></g><g class="cell" transform="translate(0, 21)"><rect class="swatch" height="15" width="15" style="fill: rgb(255, 127, 14);"/><text class="label" transform="translate( 20, 12.5)" font-family="&quot;Arial&quot;, sans-serif" font-size="10px"><tspan x="0" dy="0em">ch</tspan></text></g><g class="cell" transform="translate(0, 42)"><rect class="swatch" height="15" width="15" style="fill: rgb(44, 160, 44);"/><text class="label" transform="translate( 20, 12.5)" font-family="&quot;Arial&quot;, sans-serif" font-size="10px"><tspan x="0" dy="0em">ct</tspan></text></g><g class="cell" transform="translate(0, 63)"><rect class="swatch" height="15" width="15" style="fill: rgb(214, 39, 40);"/><text class="label" transform="translate( 20, 12.5)" font-family="&quot;Arial&quot;, sans-serif" font-size="10px"><tspan x="0" dy="0em">fb</tspan></text></g><g class="cell" transform="translate(0, 84)"><rect class="swatch" height="15" width="15" style="fill: rgb(148, 103, 189);"/><text class="label" transform="translate( 20, 12.5)" font-family="&quot;Arial&quot;, sans-serif" font-size="10px"><tspan x="0" dy="0em">kn</tspan></text></g><g class="cell" transform="translate(0, 105)"><rect class="swatch" height="15" width="15" style="fill: rgb(140, 86, 75);"/><text class="label" transform="translate( 20, 12.5)" font-family="&quot;Arial&quot;, sans-serif" font-size="10px"><tspan x="0" dy="0em">sf</tspan></text></g><g class="cell" transform="translate(0, 126)"><rect class="swatch" height="15" width="15" style="fill: rgb(227, 119, 194);"/><text class="label" transform="translate( 20, 12.5)" font-family="&quot;Arial&quot;, sans-serif" font-size="10px"><tspan x="0" dy="0em">sl</tspan></text></g><g class="cell" transform="translate(0, 147)"><rect class="swatch" height="15" width="15" style="fill: rgb(127, 127, 127);"/><text class="label" transform="translate( 20, 12.5)" font-family="&quot;Arial&quot;, sans-serif" font-size="10px"><tspan x="0" dy="0em">xx</tspan></text></g></g><text class="legendTitle" font-family="&quot;Arial&quot;, sans-serif" font-size="12px" font-weight="bold"><tspan x="0" dy="0em">Colors</tspan></text></g></g></g></svg>