<svg xmlns="http://www.w3.org/2000/svg" width="805" height="600"><rect width="805" height="600" x="0" y="0" fill="#FFFFFF" id="backgorund"/><g id="viz"><g transform="translate(0,0)"><g transform="translate(10,20)"><g><path fill="#d62728" d="M0,232.14545454545456C19.625,232.14545454545456,19.625,235.20000000000002,39.25,235.20000000000002C58.875,235.20000000000002,58.875,241.3090909090909,78.5,241.3090909090909C98.125,241.3090909090909,98.125,244.87272727272733,117.75,244.87272727272733C137.375,244.87272727272733,137.375,248.94545454545457,157,248.94545454545457C176.625,248.94545454545457,176.625,251.4909090909091,196.25,251.4909090909091C215.875,251.4909090909091,215.875,250.9818181818182,235.5,250.9818181818182C255.125,250.9818181818182,255.125,256.0727272727273,274.75,256.0727272727273C294.375,256.0727272727273,294.375,261.1636363636364,314,261.1636363636364C333.625,261.1636363636364,333.625,265.74545454545455,353.25,265.74545454545455C372.875,265.74545454545455,372.875,266.7636363636364,392.5,266.7636363636364C412.125,266.7636363636364,412.125,265.74545454545455,431.75000000000006,265.74545454545455C451.375,265.74545454545455,451.375,266.2545454545455,471,266.2545454545455C490.625,266.2545454545455,490.625,266.2545454545455,510.25,266.2545454545455C529.875,266.2545454545455,529.875,271.3454545454546,549.5,271.3454545454546C569.125,271.3454545454546,569.125,276.94545454545454,588.75,276.94545454545454C608.375,276.94545454545454,608.375,280.50909090909096,628,280.50909090909096C647.625,280.50909090909096,647.625,292.7272727272727,667.25,292.7272727272727C686.875,292.7272727272727,686.875,302.909090909091,706.5,302.909090909091C726.125,302.909090909091,726.125,299.8545454545454,745.75,299.8545454545454C765.375,299.8545454545454,765.375,310.03636363636366,785,310.03636363636366L785,560C765.375,560,765.375,560,745.75,560C726.125,560,726.125,560,706.5,560C686.875,560,686.875,560,667.25,560C647.625,560,647.625,560,628,560C608.375,560,608.375,560,588.75,560C569.125,560,569.125,560,549.5,560C529.875,560,529.875,560,510.25,560C490.625,560,490.625,560,471,560C451.375,560,451.375,560,431.75000000000006,560C412.125,560,412.125,560,392.5,560C372.875,560,372.875,560,353.25,560C333.625,560,333.625,560,314,560C294.375,560,294.375,560,274.75,560C255.125,560,255.125,560,235.5,560C215.875,560,215.875,560,196.25,560C176.625,560,176.625,560,157,560C137.375,560,137.375,560,117.75,560C98.125,560,98.125,560,78.5,560C58.875,560,58.875,560,39.25,560C19.625,560,19.625,560,0,560Z"><title>fb</title></path><path fill="#e377c2" d="M0,170.54545454545456C19.625,170.54545454545456,19.625,175.12727272727273,39.25,175.12727272727273C58.875,175.12727272727273,58.875,172.07272727272732,78.5,172.07272727272732C98.125,172.07272727272732,98.125,169.52727272727273,117.75,169.52727272727273C137.375,169.52727272727273,137.375,172.07272727272732,157,172.07272727272732C176.625,172.07272727272732,176.625,175.63636363636368,196.25,175.63636363636368C215.875,175.63636363636368,215.875,173.09090909090915,235.5,173.09090909090915C255.125,173.09090909090915,255.125,180.21818181818185,274.75,180.21818181818185C294.375,180.21818181818185,294.375,185.81818181818187,314,185.81818181818187C333.625,185.81818181818187,333.625,191.41818181818186,353.25,191.41818181818186C372.875,191.41818181818186,372.875,193.45454545454552,392.5,193.45454545454552C412.125,193.45454545454552,412.125,191.92727272727274,431.75000000000006,191.92727272727274C451.375,191.92727272727274,451.375,196.50909090909093,471,196.50909090909093C490.625,196.50909090909093,490.625,191.41818181818186,510.25,191.41818181818186C529.875,191.41818181818186,529.875,193.9636363636364,549.5,193.9636363636364C569.125,193.9636363636364,569.125,193.96363636363634,588.75,193.96363636363634C608.375,193.96363636363634,608.375,194.47272727272727,628,194.47272727272727C647.625,194.47272727272727,647.625,199.56363636363642,667.25,199.56363636363642C686.875,199.56363636363642,686.875,207.2,706.5,207.2C726.125,207.2,726.125,197.52727272727276,745.75,197.52727272727276C765.375,197.52727272727276,765.375,199.05454545454552,785,199.05454545454552L785,310.03636363636366C765.375,310.03636363636366,765.375,299.8545454545454,745.75,299.8545454545454C726.125,299.8545454545454,726.125,302.909090909091,706.5,302.909090909091C686.875,302.909090909091,686.875,292.7272727272727,667.25,292.7272727272727C647.625,292.7272727272727,647.625,280.50909090909096,628,280.50909090909096C608.375,280.50909090909096,608.375,276.94545454545454,588.75,276.94545454545454C569.125,276.94545454545454,569.125,271.3454545454546,549.5,271.3454545454546C529.875,271.3454545454546,529.875,266.2545454545455,510.25,266.2545454545455C490.625,266.2545454545455,490.625,266.2545454545455,471,266.2545454545455C451.375,266.2545454545455,451.375,265.74545454545455,431.75000000000006,265.74545454545455C412.125,265.74545454545455,412.125,266.7636363636364,392.5,266.7636363636364C372.875,266.7636363636364,372.875,265.74545454545455,353.25,265.74545454545455C333.625,265.74545454545455,333.625,261.1636363636364,314,261.1636363636364C294.375,261.1636363636364,294.375,256.0727272727273,274.75,256.0727272727273C255.125,256.0727272727273,255.125,250.9818181818182,235.5,250.9818181818182C215.875,250.9818181818182,215.875,251.4909090909091,196.25,251.4909090909091C176.625,251.4909090909091,176.625,248.94545454545457,157,248.94545454545457C137.375,248.94545454545457,137.375,244.87272727272733,117.75,244.87272727272733C98.125,244.87272727272733,98.125,241.3090909090909,78.5,241.3090909090909C58.875,241.3090909090909,58.875,235.20000000000002,39.25,235.20000000000002C19.625,235.20000000000002,19.625,232.14545454545456,0,232.14545454545456Z"><title>sl</title></path><path fill="#2ca02c" d="M0,170.54545454545456C19.625,170.54545454545456,19.625,175.12727272727273,39.25,175.12727272727273C58.875,175.12727272727273,58.875,166.9818181818182,78.5,166.9818181818182C98.125,166.9818181818182,98.125,158.3272727272727,117.75,158.3272727272727C137.375,158.3272727272727,137.375,158.3272727272727,157,158.3272727272727C176.625,158.3272727272727,176.625,160.8727272727273,196.25,160.8727272727273C215.875,160.8727272727273,215.875,154.76363636363635,235.5,154.76363636363635C255.125,154.76363636363635,255.125,156.8,274.75,156.8C294.375,156.8,294.375,161.89090909090913,314,161.89090909090913C333.625,161.89090909090913,333.625,162.40000000000003,353.25,162.40000000000003C372.875,162.40000000000003,372.875,163.92727272727274,392.5,163.92727272727274C412.125,163.92727272727274,412.125,162.9090909090909,431.75000000000006,162.9090909090909C451.375,162.9090909090909,451.375,164.94545454545454,471,164.94545454545454C490.625,164.94545454545454,490.625,162.9090909090909,510.25,162.9090909090909C529.875,162.9090909090909,529.875,164.94545454545454,549.5,164.94545454545454C569.125,164.94545454545454,569.125,165.9636363636363,588.75,165.9636363636363C608.375,165.9636363636363,608.375,165.9636363636363,628,165.9636363636363C647.625,165.9636363636363,647.625,169.5272727272728,667.25,169.5272727272728C686.875,169.5272727272728,686.875,173.59999999999997,706.5,173.59999999999997C726.125,173.59999999999997,726.125,165.96363636363637,745.75,165.96363636363637C765.375,165.96363636363637,765.375,165.45454545454555,785,165.45454545454555L785,199.05454545454552C765.375,199.05454545454552,765.375,197.52727272727276,745.75,197.52727272727276C726.125,197.52727272727276,726.125,207.2,706.5,207.2C686.875,207.2,686.875,199.56363636363642,667.25,199.56363636363642C647.625,199.56363636363642,647.625,194.47272727272727,628,194.47272727272727C608.375,194.47272727272727,608.375,193.96363636363634,588.75,193.96363636363634C569.125,193.96363636363634,569.125,193.9636363636364,549.5,193.9636363636364C529.875,193.9636363636364,529.875,191.41818181818186,510.25,191.41818181818186C490.625,191.41818181818186,490.625,196.50909090909093,471,196.50909090909093C451.375,196.50909090909093,451.375,191.92727272727274,431.75000000000006,191.92727272727274C412.125,191.92727272727274,412.125,193.45454545454552,392.5,193.45454545454552C372.875,193.45454545454552,372.875,191.41818181818186,353.25,191.41818181818186C333.625,191.41818181818186,333.625,185.81818181818187,314,185.81818181818187C294.375,185.81818181818187,294.375,180.21818181818185,274.75,180.21818181818185C255.125,180.21818181818185,255.125,173.09090909090915,235.5,173.09090909090915C215.875,173.09090909090915,215.875,175.63636363636368,196.25,175.63636363636368C176.625,175.63636363636368,176.625,172.07272727272732,157,172.07272727272732C137.375,172.07272727272732,137.375,169.52727272727273,117.75,169.52727272727273C98.125,169.52727272727273,98.125,172.07272727272732,78.5,172.07272727272732C58.875,172.07272727272732,58.875,175.12727272727273,39.25,175.12727272727273C19.625,175.12727272727273,19.625,170.54545454545456,0,170.54545454545456Z"><title>ct</title></path><path fill="#1f77b4" d="M0,113.52727272727275C19.625,113.52727272727275,19.625,124.21818181818188,39.25,124.21818181818188C58.875,124.21818181818188,58.875,120.65454545454551,78.5,120.65454545454551C98.125,120.65454545454551,98.125,115.56363636363639,117.75,115.56363636363639C137.375,115.56363636363639,137.375,113.52727272727275,157,113.52727272727275C176.625,113.52727272727275,176.625,117.0909090909091,196.25,117.0909090909091C215.875,117.0909090909091,215.875,110.47272727272733,235.5,110.47272727272733C255.125,110.47272727272733,255.125,110.47272727272733,274.75,110.47272727272733C294.375,110.47272727272733,294.375,116.07272727272733,314,116.07272727272733C333.625,116.07272727272733,333.625,114.54545454545456,353.25,114.54545454545456C372.875,114.54545454545456,372.875,110.98181818181821,392.5,110.98181818181821C412.125,110.98181818181821,412.125,113.52727272727275,431.75000000000006,113.52727272727275C451.375,113.52727272727275,451.375,114.54545454545456,471,114.54545454545456C490.625,114.54545454545456,490.625,116.58181818181822,510.25,116.58181818181822C529.875,116.58181818181822,529.875,113.01818181818186,549.5,113.01818181818186C569.125,113.01818181818186,569.125,111.99999999999997,588.75,111.99999999999997C608.375,111.99999999999997,608.375,112.50909090909086,628,112.50909090909086C647.625,112.50909090909086,647.625,115.56363636363645,667.25,115.56363636363645C686.875,115.56363636363645,686.875,119.63636363636363,706.5,119.63636363636363C726.125,119.63636363636363,726.125,116.58181818181822,745.75,116.58181818181822C765.375,116.58181818181822,765.375,116.07272727272733,785,116.07272727272733L785,165.45454545454555C765.375,165.45454545454555,765.375,165.96363636363637,745.75,165.96363636363637C726.125,165.96363636363637,726.125,173.59999999999997,706.5,173.59999999999997C686.875,173.59999999999997,686.875,169.5272727272728,667.25,169.5272727272728C647.625,169.5272727272728,647.625,165.9636363636363,628,165.9636363636363C608.375,165.9636363636363,608.375,165.9636363636363,588.75,165.9636363636363C569.125,165.9636363636363,569.125,164.94545454545454,549.5,164.94545454545454C529.875,164.94545454545454,529.875,162.9090909090909,510.25,162.9090909090909C490.625,162.9090909090909,490.625,164.94545454545454,471,164.94545454545454C451.375,164.94545454545454,451.375,162.9090909090909,431.75000000000006,162.9090909090909C412.125,162.9090909090909,412.125,163.92727272727274,392.5,163.92727272727274C372.875,163.92727272727274,372.875,162.40000000000003,353.25,162.40000000000003C333.625,162.40000000000003,333.625,161.89090909090913,314,161.89090909090913C294.375,161.89090909090913,294.375,156.8,274.75,156.8C255.125,156.8,255.125,154.76363636363635,235.5,154.76363636363635C215.875,154.76363636363635,215.875,160.8727272727273,196.25,160.8727272727273C176.625,160.8727272727273,176.625,158.3272727272727,157,158.3272727272727C137.375,158.3272727272727,137.375,158.3272727272727,117.75,158.3272727272727C98.125,158.3272727272727,98.125,166.9818181818182,78.5,166.9818181818182C58.875,166.9818181818182,58.875,175.12727272727273,39.25,175.12727272727273C19.625,175.12727272727273,19.625,170.54545454545456,0,170.54545454545456Z"><title>cb</title></path><path fill="#ff7f0e" d="M0,63.636363636363704C19.625,63.636363636363704,19.625,63.12727272727276,39.25,63.12727272727276C58.875,63.12727272727276,58.875,62.61818181818188,78.5,62.61818181818188C98.125,62.61818181818188,98.125,60.07272727272735,117.75,60.07272727272735C137.375,60.07272727272735,137.375,59.563636363636405,157,59.563636363636405C176.625,59.563636363636405,176.625,59.563636363636405,196.25,59.563636363636405C215.875,59.563636363636405,215.875,60.07272727272735,235.5,60.07272727272735C255.125,60.07272727272735,255.125,59.563636363636405,274.75,59.563636363636405C294.375,59.563636363636405,294.375,61.60000000000005,314,61.60000000000005C333.625,61.60000000000005,333.625,61.60000000000005,353.25,61.60000000000005C372.875,61.60000000000005,372.875,61.09090909090911,392.5,61.09090909090911C412.125,61.09090909090911,412.125,61.60000000000005,431.75000000000006,61.60000000000005C451.375,61.60000000000005,451.375,61.60000000000005,471,61.60000000000005C490.625,61.60000000000005,490.625,61.60000000000005,510.25,61.60000000000005C529.875,61.60000000000005,529.875,60.58181818181823,549.5,60.58181818181823C569.125,60.58181818181823,569.125,59.56363636363634,588.75,59.56363636363634C608.375,59.56363636363634,608.375,58.03636363636364,628,58.03636363636364C647.625,58.03636363636364,647.625,59.05454545454559,667.25,59.05454545454559C686.875,59.05454545454559,686.875,59.05454545454546,706.5,59.05454545454546C726.125,59.05454545454546,726.125,58.54545454545458,745.75,58.54545454545458C765.375,58.54545454545458,765.375,58.545454545454646,785,58.545454545454646L785,116.07272727272733C765.375,116.07272727272733,765.375,116.58181818181822,745.75,116.58181818181822C726.125,116.58181818181822,726.125,119.63636363636363,706.5,119.63636363636363C686.875,119.63636363636363,686.875,115.56363636363645,667.25,115.56363636363645C647.625,115.56363636363645,647.625,112.50909090909086,628,112.50909090909086C608.375,112.50909090909086,608.375,111.99999999999997,588.75,111.99999999999997C569.125,111.99999999999997,569.125,113.01818181818186,549.5,113.01818181818186C529.875,113.01818181818186,529.875,116.58181818181822,510.25,116.58181818181822C490.625,116.58181818181822,490.625,114.54545454545456,471,114.54545454545456C451.375,114.54545454545456,451.375,113.52727272727275,431.75000000000006,113.52727272727275C412.125,113.52727272727275,412.125,110.98181818181821,392.5,110.98181818181821C372.875,110.98181818181821,372.875,114.54545454545456,353.25,114.54545454545456C333.625,114.54545454545456,333.625,116.07272727272733,314,116.07272727272733C294.375,116.07272727272733,294.375,110.47272727272733,274.75,110.47272727272733C255.125,110.47272727272733,255.125,110.47272727272733,235.5,110.47272727272733C215.875,110.47272727272733,215.875,117.0909090909091,196.25,117.0909090909091C176.625,117.0909090909091,176.625,113.52727272727275,157,113.52727272727275C137.375,113.52727272727275,137.375,115.56363636363639,117.75,115.56363636363639C98.125,115.56363636363639,98.125,120.65454545454551,78.5,120.65454545454551C58.875,120.65454545454551,58.875,124.21818181818188,39.25,124.21818181818188C19.625,124.21818181818188,19.625,113.52727272727275,0,113.52727272727275Z"><title>ch</title></path><path fill="#8c564b" d="M0,54.98181818181823C19.625,54.98181818181823,19.625,54.47272727272734,39.25,54.47272727272734C58.875,54.47272727272734,58.875,53.9636363636364,78.5,53.9636363636364C98.125,53.9636363636364,98.125,52.945454545454574,117.75,52.945454545454574C137.375,52.945454545454574,137.375,52.436363636363694,157,52.436363636363694C176.625,52.436363636363694,176.625,52.436363636363694,196.25,52.436363636363694C215.875,52.436363636363694,215.875,53.45454545454552,235.5,53.45454545454552C255.125,53.45454545454552,255.125,52.945454545454574,274.75,52.945454545454574C294.375,52.945454545454574,294.375,54.47272727272734,314,54.47272727272734C333.625,54.47272727272734,333.625,53.9636363636364,353.25,53.9636363636364C372.875,53.9636363636364,372.875,52.945454545454574,392.5,52.945454545454574C412.125,52.945454545454574,412.125,52.945454545454574,431.75000000000006,52.945454545454574C451.375,52.945454545454574,451.375,53.45454545454552,471,53.45454545454552C490.625,53.45454545454552,490.625,54.47272727272734,510.25,54.47272727272734C529.875,54.47272727272734,529.875,53.45454545454552,549.5,53.45454545454552C569.125,53.45454545454552,569.125,52.94545454545451,588.75,52.94545454545451C608.375,52.94545454545451,608.375,51.41818181818181,628,51.41818181818181C647.625,51.41818181818181,647.625,51.927272727272815,667.25,51.927272727272815C686.875,51.927272727272815,686.875,50.90909090909093,706.5,50.90909090909093C726.125,50.90909090909093,726.125,50.90909090909093,745.75,50.90909090909093C765.375,50.90909090909093,765.375,50.90909090909099,785,50.90909090909099L785,58.545454545454646C765.375,58.545454545454646,765.375,58.54545454545458,745.75,58.54545454545458C726.125,58.54545454545458,726.125,59.05454545454546,706.5,59.05454545454546C686.875,59.05454545454546,686.875,59.05454545454559,667.25,59.05454545454559C647.625,59.05454545454559,647.625,58.03636363636364,628,58.03636363636364C608.375,58.03636363636364,608.375,59.56363636363634,588.75,59.56363636363634C569.125,59.56363636363634,569.125,60.58181818181823,549.5,60.58181818181823C529.875,60.58181818181823,529.875,61.60000000000005,510.25,61.60000000000005C490.625,61.60000000000005,490.625,61.60000000000005,471,61.60000000000005C451.375,61.60000000000005,451.375,61.60000000000005,431.75000000000006,61.60000000000005C412.125,61.60000000000005,412.125,61.09090909090911,392.5,61.09090909090911C372.875,61.09090909090911,372.875,61.60000000000005,353.25,61.60000000000005C333.625,61.60000000000005,333.625,61.60000000000005,314,61.60000000000005C294.375,61.60000000000005,294.375,59.563636363636405,274.75,59.563636363636405C255.125,59.563636363636405,255.125,60.07272727272735,235.5,60.07272727272735C215.875,60.07272727272735,215.875,59.563636363636405,196.25,59.563636363636405C176.625,59.563636363636405,176.625,59.563636363636405,157,59.563636363636405C137.375,59.563636363636405,137.375,60.07272727272735,117.75,60.07272727272735C98.125,60.07272727272735,98.125,62.61818181818188,78.5,62.61818181818188C58.875,62.61818181818188,58.875,63.12727272727276,39.25,63.12727272727276C19.625,63.12727272727276,19.625,63.636363636363704,0,63.636363636363704Z"><title>sf</title></path><path fill="#9467bd" d="M0,50.90909090909093C19.625,50.90909090909093,19.625,51.41818181818187,39.25,51.41818181818187C58.875,51.41818181818187,58.875,50.90909090909093,78.5,50.90909090909093C98.125,50.90909090909093,98.125,50.400000000000105,117.75,50.400000000000105C137.375,50.400000000000105,137.375,50.90909090909093,157,50.90909090909093C176.625,50.90909090909093,176.625,50.400000000000105,196.25,50.400000000000105C215.875,50.400000000000105,215.875,50.90909090909093,235.5,50.90909090909093C255.125,50.90909090909093,255.125,50.90909090909093,274.75,50.90909090909093C294.375,50.90909090909093,294.375,50.90909090909093,314,50.90909090909093C333.625,50.90909090909093,333.625,50.90909090909093,353.25,50.90909090909093C372.875,50.90909090909093,372.875,50.90909090909093,392.5,50.90909090909093C412.125,50.90909090909093,412.125,50.400000000000105,431.75000000000006,50.400000000000105C451.375,50.400000000000105,451.375,50.90909090909093,471,50.90909090909093C490.625,50.90909090909093,490.625,51.41818181818187,510.25,51.41818181818187C529.875,51.41818181818187,529.875,50.400000000000105,549.5,50.400000000000105C569.125,50.400000000000105,569.125,50.90909090909093,588.75,50.90909090909093C608.375,50.90909090909093,608.375,50.90909090909093,628,50.90909090909093C647.625,50.90909090909093,647.625,51.927272727272815,667.25,51.927272727272815C686.875,51.927272727272815,686.875,50.90909090909093,706.5,50.90909090909093C726.125,50.90909090909093,726.125,50.90909090909093,745.75,50.90909090909093C765.375,50.90909090909093,765.375,50.90909090909099,785,50.90909090909099L785,50.90909090909099C765.375,50.90909090909099,765.375,50.90909090909093,745.75,50.90909090909093C726.125,50.90909090909093,726.125,50.90909090909093,706.5,50.90909090909093C686.875,50.90909090909093,686.875,51.927272727272815,667.25,51.927272727272815C647.625,51.927272727272815,647.625,51.41818181818181,628,51.41818181818181C608.375,51.41818181818181,608.375,52.94545454545451,588.75,52.94545454545451C569.125,52.94545454545451,569.125,53.45454545454552,549.5,53.45454545454552C529.875,53.45454545454552,529.875,54.47272727272734,510.25,54.47272727272734C490.625,54.47272727272734,490.625,53.45454545454552,471,53.45454545454552C451.375,53.45454545454552,451.375,52.945454545454574,431.75000000000006,52.945454545454574C412.125,52.945454545454574,412.125,52.945454545454574,392.5,52.945454545454574C372.875,52.945454545454574,372.875,53.9636363636364,353.25,53.9636363636364C333.625,53.9636363636364,333.625,54.47272727272734,314,54.47272727272734C294.375,54.47272727272734,294.375,52.945454545454574,274.75,52.945454545454574C255.125,52.945454545454574,255.125,53.45454545454552,235.5,53.45454545454552C215.875,53.45454545454552,215.875,52.436363636363694,196.25,52.436363636363694C176.625,52.436363636363694,176.625,52.436363636363694,157,52.436363636363694C137.375,52.436363636363694,137.375,52.945454545454574,117.75,52.945454545454574C98.125,52.945454545454574,98.125,53.9636363636364,78.5,53.9636363636364C58.875,53.9636363636364,58.875,54.47272727272734,39.25,54.47272727272734C19.625,54.47272727272734,19.625,54.98181818181823,0,54.98181818181823Z"><title>kn</title></path><path fill="#7f7f7f" d="M0,15.272727272727309C19.625,15.272727272727309,19.625,21.381818181818197,39.25,21.381818181818197C58.875,21.381818181818197,58.875,5.600000000000067,78.5,5.600000000000067C98.125,5.600000000000067,98.125,22.400000000000144,117.75,22.400000000000144C137.375,22.400000000000144,137.375,37.67272727272733,157,37.67272727272733C176.625,37.67272727272733,176.625,40.21818181818192,196.25,40.21818181818192C215.875,40.21818181818192,215.875,41.745454545454564,235.5,41.745454545454564C255.125,41.745454545454564,255.125,41.23636363636375,274.75,41.23636363636375C294.375,41.23636363636375,294.375,42.763636363636394,314,42.763636363636394C333.625,42.763636363636394,333.625,46.836363636363686,353.25,46.836363636363686C372.875,46.836363636363686,372.875,47.854545454545516,392.5,47.854545454545516C412.125,47.854545454545516,412.125,47.34545454545463,431.75000000000006,47.34545454545463C451.375,47.34545454545463,451.375,48.36363636363646,471,48.36363636363646C490.625,48.36363636363646,490.625,48.87272727272734,510.25,48.87272727272734C529.875,48.87272727272734,529.875,47.85454545454557,549.5,47.85454545454557C569.125,47.85454545454557,569.125,48.36363636363646,588.75,48.36363636363646C608.375,48.36363636363646,608.375,48.36363636363646,628,48.36363636363646C647.625,48.36363636363646,647.625,49.890909090909226,667.25,49.890909090909226C686.875,49.890909090909226,686.875,49.38181818181828,706.5,49.38181818181828C726.125,49.38181818181828,726.125,48.87272727272734,745.75,48.87272727272734C765.375,48.87272727272734,765.375,49.38181818181828,785,49.38181818181828L785,50.90909090909099C765.375,50.90909090909099,765.375,50.90909090909093,745.75,50.90909090909093C726.125,50.90909090909093,726.125,50.90909090909093,706.5,50.90909090909093C686.875,50.90909090909093,686.875,51.927272727272815,667.25,51.927272727272815C647.625,51.927272727272815,647.625,50.90909090909093,628,50.90909090909093C608.375,50.90909090909093,608.375,50.90909090909093,588.75,50.90909090909093C569.125,50.90909090909093,569.125,50.400000000000105,549.5,50.400000000000105C529.875,50.400000000000105,529.875,51.41818181818187,510.25,51.41818181818187C490.625,51.41818181818187,490.625,50.90909090909093,471,50.90909090909093C451.375,50.90909090909093,451.375,50.400000000000105,431.75000000000006,50.400000000000105C412.125,50.400000000000105,412.125,50.90909090909093,392.5,50.90909090909093C372.875,50.90909090909093,372.875,50.90909090909093,353.25,50.90909090909093C333.625,50.90909090909093,333.625,50.90909090909093,314,50.90909090909093C294.375,50.90909090909093,294.375,50.90909090909093,274.75,50.90909090909093C255.125,50.90909090909093,255.125,50.90909090909093,235.5,50.90909090909093C215.875,50.90909090909093,215.875,50.400000000000105,196.25,50.400000000000105C176.625,50.400000000000105,176.625,50.90909090909093,157,50.90909090909093C137.375,50.90909090909093,137.375,50.400000000000105,117.75,50.400000000000105C98.125,50.400000000000105,98.125,50.90909090909093,78.5,50.90909090909093C58.875,50.90909090909093,58.875,51.41818181818187,39.25,51.41818181818187C19.625,51.41818181818187,19.625,50.90909090909093,0,50.90909090909093Z"><title>xx</title></path></g><g id="xAxis" transform="translate(0,560)" fill="none" font-size="10" font-family="sans-serif" text-anchor="middle"><path class="domain" stroke="currentColor" d="M0,0H785"/><g class="tick" opacity="1" transform="translate(0,0)"><line stroke="currentColor" y2="6"/><text fill="currentColor" y="9" dy="0.71em">2,002</text></g><g class="tick" opacity="1" transform="translate(78.5,0)"><line stroke="currentColor" y2="6"/><text fill="currentColor" y="9" dy="0.71em">2,004</text></g><g class="tick" opacity="1" transform="translate(157,0)"><line stroke="currentColor" y2="6"/><text fill="currentColor" y="9" dy="0.71em">2,006</text></g><g class="tick" opacity="1" transform="translate(235.5,0)"><line stroke="currentColor" y2="6"/><text fill="currentColor" y="9" dy="0.71em">2,008</text></g><g class="tick" opacity="1" transform="translate(314,0)"><line stroke="currentColor" y2="6"/><text fill="currentColor" y="9" dy="0.71em">2,010</text></g><g class="tick" opacity="1" transform="translate(392.5,0)"><line stroke="currentColor" y2="6"/><text fill="currentColor" y="9" dy="0.71em">2,012</text></g><g class="tick" opacity="1" transform="translate(471,0)"><line stroke="currentColor" y2="6"/><text fill="currentColor" y="9" dy="0.71em">2,014</text></g><g class="tick" opacity="1" transform="translate(549.5,0)"><line stroke="currentColor" y2="6"/><text fill="currentColor" y="9" dy="0.71em">2,016</text></g><g class="tick" opacity="1" transform="translate(628,0)"><line stroke="currentColor" y2="6"/><text fill="currentColor" y="9" dy="0.71em">2,018</text></g><g class="tick" opacity="1" transform="translate(706.5,0)"><line stroke="currentColor" y2="6"/><text fill="currentColor" y="9" dy="0.71em">2,020</text></g><g class="tick" opacity="1" transform="translate(785,0)"><line stroke="currentColor" y2="6"/><text fill="currentColor" y="9" dy="0.71em">2,022</text></g></g><text style="font-family: Arial, sans-serif; font-size: 12px; fill: rgb(123, 123, 123); font-weight: bold;" y="556" x="785" text-anchor="end">season</text><text style="font-family: Arial, sans-serif; font-size: 12px; fill: rgb(123, 123, 123); font-weight: bold;" x="4" text-anchor="start" dominant-baseline="hanging">value</text><g id="labels"><text x="0" y="396.07272727272726" text-anchor="start" alignment-baseline="middle" style="font-family: Arial, sans-serif; font-size: 10px; fill: black; font-weight: bold;">fb</text><text x="785" y="254.54545454545456" text-anchor="end" alignment-baseline="middle" style="font-family: Arial, sans-serif; font-size: 10px; fill: black; font-weight: bold;">sl</text><text x="706.5" y="190.39999999999998" text-anchor="middle" alignment-baseline="middle" style="font-family: Arial, sans-serif; font-size: 10px; fill: black; font-weight: bold;">ct</text><text x="0" y="142.03636363636372" text-anchor="start" alignment-baseline="middle" style="font-family: Arial, sans-serif; font-size: 10px; fill: black; font-weight: bold;">cb</text><text x="39.25" y="93.67272727272737" text-anchor="middle" alignment-baseline="middle" style="font-family: Arial, sans-serif; font-size: 10px; fill: black; font-weight: bold;">ch</text><text x="0" y="59.30909090909093" text-anchor="start" alignment-baseline="middle" style="font-family: Arial, sans-serif; font-size: 10px; fill: black; font-weight: bold;">sf</text><text x="0" y="52.945454545454574" text-anchor="start" alignment-baseline="middle" style="font-family: Arial, sans-serif; font-size: 10px; fill: black; font-weight: bold;">kn</text><text x="78.5" y="28.254545454545497" text-anchor="middle" alignment-baseline="middle" style="font-family: Arial, sans-serif; font-size: 10px; fill: black; font-weight: bold;">xx</text></g></g><text x="4" y="4" style="font-family: Arial, sans-serif; font-size: 12px; fill: black; font-weight: bold; dominant-baseline: hanging;"/></g></g></svg>